<?xml version="1.0" encoding="utf-8"?>
<!-- Generator: Adobe Illustrator 16.0.0, SVG Export Plug-In . SVG Version: 6.00 Build 0)  -->
<!DOCTYPE svg PUBLIC "-//W3C//DTD SVG 1.1//EN" "http://www.w3.org/Graphics/SVG/1.1/DTD/svg11.dtd">
<svg version="1.1" id="Layer_1" xmlns="http://www.w3.org/2000/svg" xmlns:xlink="http://www.w3.org/1999/xlink" x="0px" y="0px"
	 width="30px" height="30px" viewBox="0 0 30 30" enable-background="new 0 0 30 30" xml:space="preserve">
<g>
	<g>
		<path fill="none" stroke="#D8BBA3" stroke-miterlimit="10" d="M29.48,15c0-7.996-6.482-14.479-14.48-14.479
			C7.006,0.521,0.52,7.004,0.52,15S7.006,29.479,15,29.479C22.998,29.479,29.48,22.996,29.48,15z M11.159,21.533
			c-0.527-0.526-0.527-1.384,0-1.912l4.661-4.658l-4.688-4.684c-0.525-0.53-0.525-1.386,0-1.912c0.267-0.266,0.61-0.398,0.959-0.398
			c0.346,0,0.691,0.134,0.954,0.398l5.436,5.434c0.082,0.054,0.158,0.111,0.229,0.183c0.269,0.271,0.399,0.626,0.394,0.979
			c0.006,0.354-0.125,0.708-0.395,0.979c-0.068,0.07-0.146,0.131-0.229,0.182l-5.411,5.41
			C12.542,22.063,11.686,22.063,11.159,21.533z"/>
	</g>
</g>
</svg>
