<?xml version="1.0" encoding="utf-8"?>
<!-- Generator: Adobe Illustrator 16.0.0, SVG Export Plug-In . SVG Version: 6.00 Build 0)  -->
<!DOCTYPE svg PUBLIC "-//W3C//DTD SVG 1.1//EN" "http://www.w3.org/Graphics/SVG/1.1/DTD/svg11.dtd">
<svg version="1.1" id="Layer_1" xmlns="http://www.w3.org/2000/svg" xmlns:xlink="http://www.w3.org/1999/xlink" x="0px" y="0px"
	 width="30px" height="30px" viewBox="0 0 30 30" enable-background="new 0 0 30 30" xml:space="preserve">
<g>
	<g>
		<path fill="none" stroke="#D8BBA3" stroke-miterlimit="10" d="M0.52,15c0,7.996,6.482,14.479,14.48,14.479
			c7.994,0,14.48-6.481,14.48-14.479S22.994,0.521,15,0.521C7.002,0.521,0.52,7.004,0.52,15z M18.841,8.467
			c0.527,0.526,0.527,1.385,0,1.912l-4.661,4.658l4.688,4.686c0.524,0.528,0.524,1.385,0,1.91c-0.267,0.266-0.61,0.398-0.959,0.398
			c-0.347,0-0.691-0.133-0.954-0.398l-5.437-5.434c-0.081-0.053-0.158-0.111-0.229-0.182c-0.27-0.271-0.399-0.626-0.395-0.98
			c-0.006-0.354,0.125-0.708,0.396-0.979c0.068-0.07,0.146-0.132,0.228-0.183l5.412-5.41C17.458,7.938,18.314,7.938,18.841,8.467z"
			/>
	</g>
</g>
</svg>
