<?xml version="1.0" encoding="utf-8"?>
<!-- Generator: Adobe Illustrator 16.0.0, SVG Export Plug-In . SVG Version: 6.00 Build 0)  -->
<!DOCTYPE svg PUBLIC "-//W3C//DTD SVG 1.1 Tiny//EN" "http://www.w3.org/Graphics/SVG/1.1/DTD/svg11-tiny.dtd">
<svg version="1.1" baseProfile="tiny" id="Layer_1" xmlns="http://www.w3.org/2000/svg" xmlns:xlink="http://www.w3.org/1999/xlink"
	 x="0px" y="0px" width="30px" height="30px" viewBox="0 -5 30 30" xml:space="preserve">
<g>
	<g>
		<path fill="none" stroke="#56534C" stroke-miterlimit="10" d="M29.48,10.25c0-7.996-6.482-14.479-14.48-14.479
			c-7.994,0-14.48,6.483-14.48,14.479S7.006,24.729,15,24.729C22.998,24.729,29.48,18.246,29.48,10.25z M11.159,16.783
			c-0.527-0.526-0.527-1.384,0-1.912l4.661-4.658l-4.688-4.684c-0.525-0.53-0.525-1.386,0-1.912c0.267-0.266,0.61-0.398,0.959-0.398
			c0.346,0,0.691,0.133,0.954,0.398l5.436,5.434c0.081,0.053,0.158,0.111,0.229,0.182c0.269,0.271,0.399,0.626,0.394,0.98
			c0.006,0.354-0.125,0.708-0.395,0.979c-0.069,0.07-0.146,0.131-0.228,0.182l-5.411,5.41
			C12.542,17.312,11.686,17.312,11.159,16.783z"/>
	</g>
</g>
</svg>
