<?xml version="1.0" encoding="utf-8"?>
<!-- Generator: Adobe Illustrator 16.0.0, SVG Export Plug-In . SVG Version: 6.00 Build 0)  -->
<!DOCTYPE svg PUBLIC "-//W3C//DTD SVG 1.1//EN" "http://www.w3.org/Graphics/SVG/1.1/DTD/svg11.dtd">
<svg version="1.1" id="Layer_1" xmlns="http://www.w3.org/2000/svg" xmlns:xlink="http://www.w3.org/1999/xlink" x="0px" y="0px"
	 width="80px" height="80px" viewBox="0 0 80 80" enable-background="new 0 0 80 80" xml:space="preserve">
<circle fill="#FFFFFF" cx="40" cy="40" r="40"/>
<g>
	<path fill="#C0B6B4" stroke="#C0B6B4" stroke-miterlimit="10" d="M31.182,35.963c-0.162-0.086-0.287,0.139-0.141,0.243
		c3.813,2.715,7.923,6.201,8.629,11.089c-3.247-2.504-6.898-4.416-10.116-6.961c-2.7-2.134-5.953-4.527-7.129-7.893
		c-0.071-0.203-0.433-0.186-0.401,0.055c0.413,3.097,3.737,5.8,6.012,7.612c3.751,2.989,7.803,5.395,11.83,7.984
		c0.156,0.1,0.404-0.028,0.386-0.223C39.772,42.782,35.53,38.281,31.182,35.963"/>
	<path fill="#C0B6B4" stroke="#C0B6B4" stroke-miterlimit="10" d="M38.882,29.281c-0.191-0.103-0.332,0.159-0.166,0.282
		c2.343,1.75,4.516,3.352,6.069,5.892c1.292,2.113,1.852,4.537,1.989,6.981c-0.471-1.251-0.965-2.422-1.751-3.594
		c-0.982-1.461-2.266-2.731-3.673-3.78c-1.972-1.469-3.813-3.073-5.706-4.639c-1.813-1.499-3.943-2.714-5.627-4.349
		c-0.138-0.133-0.315,0.062-0.205,0.204c1.254,1.613,3.036,2.76,4.605,4.04c1.734,1.415,3.367,2.95,5.148,4.309
		c1.544,1.178,3.042,2.29,4.285,3.798c1.224,1.479,2.293,3.434,2.964,5.228c0.074,0.194,0.379,0.176,0.375-0.051
		C47.119,37.629,44.279,32.152,38.882,29.281"/>
	<path fill="#C0B6B4" stroke="#C0B6B4" stroke-miterlimit="10" d="M46.934,24.629c-0.24-0.102-0.452,0.229-0.209,0.36
		c3.596,1.929,8.268,4.73,7.876,9.213c-1.199-2.619-4.377-4.679-6.698-5.889c-0.112-0.058-0.194,0.094-0.097,0.166
		c1.28,0.944,2.522,1.95,3.692,3.028c1.202,1.107,2.57,2.486,2.866,4.154c0.059,0.341,0.562,0.3,0.647,0
		C56.589,30.133,51.35,26.53,46.934,24.629"/>
	<path fill="#C0B6B4" stroke="#C0B6B4" stroke-miterlimit="10" d="M41.704,20.013h-0.171c-0.017,0-0.017,0.025,0,0.025h0.171
		C41.719,20.039,41.719,20.013,41.704,20.013"/>
	<path fill="#C0B6B4" stroke="#C0B6B4" stroke-miterlimit="10" d="M57.436,26.298c-1.521-1.784-3.301-3.004-5.511-3.783
		c-1.57-0.552-3.357-0.772-4.994-1.062c-1.569-0.276-3.126-0.326-4.715-0.247c-0.243,0.012-0.241,0.359,0,0.376
		c1.963,0.137,3.929,0.479,5.86,0.857c1.903,0.373,3.777,0.716,5.513,1.613c2.595,1.34,4.713,4.15,6.032,6.683
		c0.615,1.184,1.04,2.422,1.298,3.688c-0.879-1.335-2.149-2.508-3.174-3.445c-0.173-0.158-0.497,0.06-0.34,0.262
		c0.747,0.971,1.48,1.943,2.179,2.949c0.898,1.294,1.038,2.629,1.547,4.054c0.017,0.047,0.046,0.09,0.077,0.127
		c-0.027,0.553-0.079,1.107-0.16,1.657c-0.568-1.88-1.846-3.673-2.752-5.248c-0.146-0.248-0.51-0.03-0.382,0.223
		c0.649,1.29,1.33,2.551,1.829,3.91c0.478,1.294,0.499,2.579,0.68,3.918c-0.169,0.566-0.365,1.125-0.583,1.675
		c-0.149-2.313-1.192-4.727-2.099-6.626c-0.085-0.176-0.379-0.051-0.317,0.133c0.475,1.368,0.988,2.707,1.316,4.12
		c0.418,1.822,0.05,3.65-0.403,5.409c-0.279,0.469-0.576,0.927-0.89,1.368c-5.287,7.462-15.651,11.395-24.651,9.533
		c-1.399-2.176-1.766-4.587-1.878-7.151c-0.009-0.191-0.289-0.191-0.296,0c-0.092,2.465,0.008,4.748,1.083,6.896
		c-0.387-0.103-0.772-0.211-1.153-0.336c-0.003-0.004-0.005-0.008-0.008-0.013c-2.635-3.007-4.256-6.284-4.591-10.306
		c-0.015-0.172-0.276-0.178-0.273,0c0.056,3.624,1.05,6.934,3.261,9.714c-1.186-0.509-2.326-1.135-3.403-1.89
		c0.05-0.144,0.038-0.312-0.083-0.459c-2.297-2.8-2.311-6.832-2.224-10.269c0.005-0.193-0.282-0.188-0.297,0
		c-0.24,3.074-0.534,6.5,0.843,9.314c-1.172-1.093-2.135-2.338-2.899-3.688c0.039-0.077,0.055-0.169,0.032-0.268
		c-0.352-1.564-0.569-2.884-0.338-4.489c0.163-1.142,0.459-2.276,0.362-3.434c-0.007-0.082-0.112-0.095-0.142-0.019
		c-0.576,1.509-1.186,3.402-1.243,5.206c-1.41-4.231-1.256-9.046,0.184-13.287c1.365-4.023,4.001-7.269,7.497-9.646
		c3.582-2.435,7.636-3.458,11.913-3.69c0.094-0.005,0.125-0.156,0.023-0.174c-5.679-0.985-11.897,2.33-15.786,6.252
		c-3.958,3.993-5.762,9.932-5.546,15.466c0.216,5.527,2.783,10.793,7.299,14.043c4.578,3.294,10.542,4.321,16.053,3.508
		c9.979-1.471,19.627-8.807,20.876-19.295C62.695,35.115,60.838,30.295,57.436,26.298"/>
	<path fill="#C0B6B4" stroke="#C0B6B4" stroke-miterlimit="10" d="M34.48,41.396c-5.127-1.459-8.122-5.846-12.122-9.012
		c-0.12-0.094-0.29,0.069-0.17,0.17c2.034,1.724,3.842,3.693,5.839,5.456c1.808,1.596,3.952,3.221,6.394,3.593
		C34.558,41.626,34.619,41.435,34.48,41.396"/>
	<path fill="#C0B6B4" stroke="#C0B6B4" stroke-miterlimit="10" d="M41.924,34.164c-2.127-2.253-4.166-4.8-6.758-6.538
		c-0.059-0.041-0.13,0.053-0.076,0.098c2.44,1.99,4.281,4.574,6.666,6.608C41.872,34.43,42.031,34.277,41.924,34.164"/>
	<path fill="#C0B6B4" stroke="#C0B6B4" stroke-miterlimit="10" d="M27.499,23.583c0.013-0.029-0.037-0.049-0.049-0.021
		c-0.979,2.107-2.076,4.278-1.129,6.596c0.029,0.069,0.139,0.043,0.115-0.031C25.66,27.773,26.599,25.735,27.499,23.583"/>
	<path fill="#C0B6B4" stroke="#C0B6B4" stroke-miterlimit="10" d="M30.025,22.022c-1.271,1.312-1.855,3.056-2.077,4.837
		c-0.01,0.081,0.126,0.097,0.142,0.02c0.361-1.772,0.937-3.329,2.041-4.774C30.178,22.043,30.077,21.969,30.025,22.022"/>
	<path fill="#C0B6B4" stroke="#C0B6B4" stroke-miterlimit="10" d="M34.85,20.659c-1.478,0.583-2.362,2.231-2.653,3.721
		c-0.016,0.084,0.11,0.12,0.131,0.035c0.357-1.472,1.153-2.977,2.557-3.674C34.93,20.718,34.897,20.64,34.85,20.659"/>
	<path fill="#C0B6B4" stroke="#C0B6B4" stroke-miterlimit="10" d="M38.099,20.518c-1.068,0.85-1.672,2.125-1.809,3.468
		c-0.008,0.085,0.139,0.105,0.151,0.02c0.188-1.338,0.804-2.445,1.75-3.395C38.253,20.55,38.164,20.467,38.099,20.518"/>
	<path fill="#C0B6B4" stroke="#C0B6B4" stroke-miterlimit="10" d="M32.333,21.457c-0.885,0.864-1.667,1.816-1.92,3.057
		c-0.02,0.092,0.115,0.13,0.143,0.039c0.343-1.172,1.078-2.096,1.91-2.964C32.548,21.501,32.419,21.373,32.333,21.457"/>
	<path fill="#C0B6B4" stroke="#C0B6B4" stroke-miterlimit="10" d="M25.621,31.631c-0.462-1.122-0.713-2.209-0.637-3.427
		c0.06-0.964,0.408-1.888,0.454-2.85c0.001-0.021-0.028-0.022-0.034-0.004c-0.767,2.042-0.947,4.366,0.096,6.332
		C25.535,31.747,25.649,31.7,25.621,31.631"/>
	<path fill="#C0B6B4" stroke="#C0B6B4" stroke-miterlimit="10" d="M56.81,41.331c-0.032-0.063-0.143-0.018-0.117,0.048
		c0.717,1.873,0.391,4.021-0.078,5.911c-0.266,1.071-0.652,2.112-1.114,3.113c-0.371,0.8-0.928,1.473-1.328,2.246
		c-0.077,0.146,0.098,0.269,0.218,0.168c0.716-0.594,1.146-1.655,1.522-2.481c0.471-1.037,0.817-2.13,1.084-3.237
		C57.437,45.265,57.691,43.074,56.81,41.331"/>
	<path fill="#C0B6B4" stroke="#C0B6B4" stroke-miterlimit="10" d="M19.419,39.552c-0.566,1.52-1.224,3.177-1.225,4.821
		c0,0.122,0.191,0.153,0.218,0.028c0.333-1.632,0.766-3.186,1.241-4.785C19.699,39.463,19.473,39.408,19.419,39.552"/>
	<path fill="#C0B6B4" stroke="#C0B6B4" stroke-miterlimit="10" d="M31.151,58.569c-0.459-1.107-0.968-2.176-1.321-3.326
		c-0.417-1.357-0.551-2.755-0.644-4.166c-0.006-0.091-0.138-0.091-0.141,0c-0.111,2.574,0.598,5.354,1.877,7.589
		C30.991,58.786,31.207,58.703,31.151,58.569"/>
	<path fill="#C0B6B4" stroke="#C0B6B4" stroke-miterlimit="10" d="M28.067,57.599c-2.519-2.562-3.855-6.202-3.292-9.794
		c0.007-0.051-0.066-0.073-0.078-0.021c-0.769,3.436,0.563,7.622,3.276,9.909C28.038,57.746,28.127,57.661,28.067,57.599"/>
	<path fill="#C0B6B4" stroke="#C0B6B4" stroke-miterlimit="10" d="M36.142,59.512c-1.613-1.343-2.388-3.127-2.751-5.16
		c-0.007-0.039-0.074-0.03-0.069,0.01c0.238,2.045,1.055,3.998,2.738,5.26C36.121,59.669,36.202,59.563,36.142,59.512"/>
	<path fill="#C0B6B4" stroke="#C0B6B4" stroke-miterlimit="10" d="M38.721,59.377c-2.063-0.963-3.012-2.805-3.963-4.761
		c-0.019-0.039-0.085-0.013-0.07,0.029c0.726,1.908,1.855,4.235,3.99,4.831C38.736,59.492,38.777,59.403,38.721,59.377"/>
</g>
</svg>
