<?xml version="1.0" encoding="utf-8"?>
<!-- Generator: Adobe Illustrator 16.0.0, SVG Export Plug-In . SVG Version: 6.00 Build 0)  -->
<!DOCTYPE svg PUBLIC "-//W3C//DTD SVG 1.1//EN" "http://www.w3.org/Graphics/SVG/1.1/DTD/svg11.dtd">
<svg version="1.1" id="Layer_1" xmlns:svgjs="http://svgjs.dev/svgjs"
	 xmlns="http://www.w3.org/2000/svg" xmlns:xlink="http://www.w3.org/1999/xlink" x="0px" y="0px" width="340.16px"
	 height="340.16px" viewBox="0 0 340.16 340.16" enable-background="new 0 0 340.16 340.16" xml:space="preserve">
<g>
	<path fill="#FFFFFF" d="M11.039,163.379c13.893,6.979,26.5,30.745,59.967,30.127c33.468-0.619,46.189-32.973,84.5-32.796
		c38.309,0.176,40.451,34.177,80.863,33.558c40.413-0.617,58.485-21.321,80.166-29.714"/>
	<path fill="#FFFFFF" d="M235.122,195.774c-3.545-0.007-6.973-0.287-10.187-0.835l0.504-2.957c3.05,0.519,6.31,0.785,9.688,0.792
		L235.122,195.774z M245.244,195.296l-0.277-2.986c3.305-0.307,6.584-0.771,9.746-1.378l0.566,2.945
		C252.021,194.504,248.646,194.981,245.244,195.296z M69.729,195.018c-2.688,0-5.342-0.158-7.886-0.47l0.365-2.979
		c2.814,0.347,5.743,0.495,8.77,0.437c0.324-0.006,0.645-0.015,0.963-0.027l0.115,2.998c-0.339,0.013-0.681,0.023-1.025,0.029
		C70.595,195.014,70.16,195.018,69.729,195.018z M82.223,193.572l-0.707-2.916c3.056-0.741,6.055-1.777,9.167-3.168l1.224,2.74
		C88.625,191.693,85.458,192.787,82.223,193.572z M51.825,192.421c-3.22-0.994-6.409-2.304-9.479-3.893l1.379-2.664
		c2.912,1.507,5.935,2.748,8.985,3.689L51.825,192.421z M215.041,192.228c-3.098-1.199-6.091-2.708-9.151-4.613l1.586-2.547
		c2.899,1.805,5.729,3.232,8.649,4.363L215.041,192.228z M265.128,191.459l-0.863-2.873c3.122-0.938,6.155-2.019,9.273-3.301
		l1.141,2.773C271.47,189.379,268.346,190.491,265.128,191.459z M100.894,185.47l-1.548-2.57c2.921-1.76,5.836-3.698,8.339-5.377
		l1.671,2.492C106.824,181.713,103.874,183.675,100.894,185.47z M283.86,183.815l-1.363-2.672c2.65-1.353,5.416-2.865,8.703-4.762
		l1.498,2.6C289.366,180.903,286.559,182.439,283.86,183.815z M33.671,183.143c-3.118-2.254-5.861-4.569-7.903-6.335l1.963-2.27
		c1.996,1.727,4.674,3.987,7.698,6.173L33.671,183.143z M197.629,181.709c-1.355-1.07-2.69-2.157-4.023-3.243
		c-1.249-1.018-2.496-2.034-3.76-3.034l1.863-2.352c1.273,1.009,2.531,2.033,3.791,3.06c1.321,1.076,2.645,2.153,3.988,3.214
		L197.629,181.709z M117.661,174.516l-1.612-2.529c3.245-2.069,6.023-3.691,8.742-5.106l1.385,2.661
		C123.536,170.915,120.831,172.495,117.661,174.516z M301.332,173.927l-1.51-2.592c2.592-1.51,5.668-3.27,8.828-4.872l1.357,2.676
		C306.915,170.706,303.887,172.439,301.332,173.927z M18.247,170.244c-3.196-2.688-5.627-4.392-7.881-5.524l1.347-2.681
		c3.168,1.592,6.188,3.994,8.465,5.909L18.247,170.244z M181.872,169.698c-2.902-1.816-5.729-3.242-8.641-4.357l1.072-2.802
		c3.096,1.186,6.092,2.696,9.16,4.616L181.872,169.698z M135.125,165.614l-1.001-2.828c3.284-1.163,6.516-2.018,9.881-2.614
		l0.523,2.954C141.328,163.693,138.252,164.507,135.125,165.614z M163.911,162.864c-2.661-0.42-5.491-0.641-8.412-0.654
		l-0.306-0.001c-0.325,0-0.649,0.003-0.972,0.008l-0.045-3c0.336-0.005,0.675-0.007,1.015-0.008l0.329,0.001
		c3.065,0.014,6.049,0.247,8.86,0.691L163.911,162.864z"/>
</g>
</svg>
