<?xml version="1.0" encoding="utf-8"?>
<!-- Generator: Adobe Illustrator 16.0.0, SVG Export Plug-In . SVG Version: 6.00 Build 0)  -->
<!DOCTYPE svg PUBLIC "-//W3C//DTD SVG 1.1//EN" "http://www.w3.org/Graphics/SVG/1.1/DTD/svg11.dtd">
<svg version="1.1" id="Layer_1" xmlns="http://www.w3.org/2000/svg" xmlns:xlink="http://www.w3.org/1999/xlink" x="0px" y="0px"
	 width="30px" height="30px" viewBox="0 0 30 30" enable-background="new 0 0 30 30" xml:space="preserve">
<path fill="#FFFFFF" d="M9.998,3C6.139,3,3,6.142,3,10.002v10C3,23.861,6.142,27,10.002,27h10C23.861,27,27,23.857,27,19.998v-10
	C27,6.139,23.857,3,19.998,3H9.998z M22,7c0.552,0,1,0.448,1,1s-0.448,1-1,1s-1-0.448-1-1S21.448,7,22,7z M15,9c3.309,0,6,2.691,6,6
	c0,3.309-2.691,6-6,6c-3.309,0-6-2.691-6-6C9,11.691,11.691,9,15,9z M15,11c-2.209,0-4,1.791-4,4s1.791,4,4,4s4-1.791,4-4
	S17.209,11,15,11z"/>
</svg>
