<?xml version="1.0" encoding="utf-8"?>
<!-- Generator: Adobe Illustrator 16.0.0, SVG Export Plug-In . SVG Version: 6.00 Build 0)  -->
<!DOCTYPE svg PUBLIC "-//W3C//DTD SVG 1.1//EN" "http://www.w3.org/Graphics/SVG/1.1/DTD/svg11.dtd">
<svg version="1.1" id="Layer_1" xmlns="http://www.w3.org/2000/svg" xmlns:xlink="http://www.w3.org/1999/xlink" x="0px" y="0px"
	 width="365px" height="65px" viewBox="0 0 365 65" enable-background="new 0 0 365 65" xml:space="preserve">
<circle fill="none" stroke="#C2BEBA" stroke-miterlimit="10" cx="182.5" cy="32.5" r="30"/>
<line fill="none" stroke="#C2BEBA" stroke-miterlimit="10" x1="152.349" y1="32.5" x2="12.349" y2="32.5"/>
<line fill="none" stroke="#C2BEBA" stroke-miterlimit="10" x1="352.349" y1="32.5" x2="212.349" y2="32.5"/>
<circle fill="none" stroke="#C2BEBA" stroke-miterlimit="10" cx="7.349" cy="32.5" r="5"/>
<circle fill="none" stroke="#C2BEBA" stroke-miterlimit="10" cx="357.349" cy="32.5" r="5"/>
<g>
	<path fill="#C2BEBA" d="M198.294,29.801c-1.278-2.526-3.783-4.612-7.251-6.043c-0.106-0.056-0.242-0.11-0.319-0.133l-0.044-0.019
		c-0.172-0.076-0.346-0.147-0.534-0.185c-5.004-1.68-10.222,0.016-12.195,3.979c-0.068,0.131-1.303,2.555-0.732,5.397
		c0,0,2.463,0.898,3.526,0.485c-1.035-0.938,0.253-4.359,0.272-4.397c1.337-2.685,4.941-3.787,8.385-2.56
		c0.047,0.017,0.093,0.03,0.144,0.044l0.045,0.019c0.009,0.003,0.019,0.007,0.027,0.011c0.009,0.004,0.018,0.007,0.026,0.011
		c0.035,0.017,0.069,0.031,0.102,0.044c0.009,0.003,0.018,0.007,0.025,0.01c2.691,1.087,4.592,2.605,5.495,4.393
		c0.896,1.773,0.874,3.853-0.066,6.183c-2.135,5.287-8.982,7.569-15.536,5.315c-0.218-0.087-1.105-0.445-2.275-1.008
		c0.003,0,0.006-0.002,0.011-0.003c-0.179-0.08-0.354-0.165-0.527-0.251c-0.052-0.026-0.106-0.053-0.159-0.078
		c-5.962-3.027-9.074-9.226-6.996-14.371c0.94-2.33,2.369-3.842,4.245-4.496c1.892-0.658,4.313-0.433,7.005,0.655
		c0.008,0.003,0.016,0.006,0.023,0.009c0.045,0.016,0.069,0.027,0.105,0.039c0.003,0.001,0.005,0.002,0.008,0.003
		c0.016,0.007,0.032,0.014,0.048,0.02l0.041,0.016c0.045,0.026,0.092,0.048,0.139,0.069c0.047,0.022,0.093,0.043,0.14,0.065
		c0.022,0.011,0.043,0.024,0.066,0.035c1.234-0.537,2.621-0.833,4.068-0.875c-0.812-0.707-1.738-1.329-2.776-1.824
		c-0.161-0.104-0.347-0.178-0.529-0.246l-0.037-0.015c-0.107-0.05-0.217-0.095-0.329-0.127c-3.49-1.378-6.741-1.617-9.415-0.686
		c-2.708,0.943-4.716,2.989-5.964,6.082c-2.685,6.65,1.312,14.634,8.969,18.395l0.11,0.094c0,0,1.123,0.541,2.005,0.923
		c0.032,0.015,0.06,0.033,0.092,0.047c0.065,0.026,0.132,0.047,0.196,0.073c0.174,0.073,0.331,0.134,0.455,0.176l0.001-0.003
		c8.349,3.047,17.21,0.103,19.979-6.754C199.609,35.229,199.588,32.361,198.294,29.801z M179.878,26.403l-0.147-0.361l0.39-0.103
		l0.148,0.361L179.878,26.403z M184.334,25.071l-0.148-0.362l0.391-0.103l0.147,0.361L184.334,25.071z M173.892,20.936l0.148,0.36
		l-0.39,0.104l-0.147-0.362L173.892,20.936z M167.868,24.272l-0.147-0.361l0.39-0.103l0.148,0.361L167.868,24.272z M172.682,39.329
		l-0.148-0.361l0.391-0.104l0.148,0.361L172.682,39.329z M176.47,42.953l-0.147-0.361l0.39-0.104l0.147,0.362L176.47,42.953z
		 M178.433,44.43l-0.148-0.362l0.391-0.103l0.148,0.361L178.433,44.43z M180.089,43.811l-0.148-0.361l0.391-0.103l0.147,0.36
		L180.089,43.811z M182.284,45.301l-0.147-0.361l0.391-0.104l0.146,0.361L182.284,45.301z M183.892,45.063l-0.148-0.36l0.392-0.104
		l0.146,0.362L183.892,45.063z M186.166,44.213l-0.148-0.363l0.391-0.104l0.148,0.364L186.166,44.213z M179.79,37.129
		c2.17,1.92,5.57,3.158,10.146,3.69c0.927,0.105,1.703-0.484,1.737-1.318c0.033-0.838-0.688-1.601-1.615-1.71
		c-2.236-0.257-4.416-0.833-5.601-1.313C181.437,37.981,179.79,37.129,179.79,37.129z M189.059,37.978l0.148,0.36l-0.391,0.104
		l-0.146-0.361L189.059,37.978z M183.822,38.426l0.146,0.362l-0.389,0.102l-0.148-0.36L183.822,38.426z M181.532,33.734
		c-1.414,0.322-3.177-0.036-5.203-1.047c-0.001-0.001-0.001-0.004-0.003-0.007c-1.166-0.589-2.417-1.388-3.741-2.397
		c-0.115-0.088-0.237-0.156-0.364-0.214c-0.708-0.37-1.583-0.269-2.072,0.281c-0.557,0.625-0.407,1.591,0.333,2.154
		c1.916,1.463,3.731,2.555,5.443,3.289c0.06,0.025,0.119,0.053,0.178,0.076c0.22,0.092,0.438,0.177,0.654,0.255
		c0.769,0.287,1.517,0.505,2.24,0.64c-0.009-0.012-0.021-0.021-0.031-0.029c1.306,0.233,2.538,0.225,3.69-0.044
		c4.396-1.025,5.714-5.335,5.768-5.518c0.488-1.548,0.465-3.766-0.027-4.743c-0.685-0.276-3.382,0.13-3.382,0.13
		c0.453,1.156,0.537,2.391,0.172,3.554C185.172,30.159,184.236,33.115,181.532,33.734z M177.398,35.292l-0.148-0.36l0.391-0.104
		l0.148,0.36L177.398,35.292z M185.771,32.011l0.147,0.362l-0.391,0.103l-0.146-0.362L185.771,32.011z"/>
</g>
<g>
</g>
<g>
</g>
<g>
</g>
<g>
</g>
<g>
</g>
<g>
</g>
<g>
</g>
<g>
</g>
<g>
</g>
<g>
</g>
<g>
</g>
<g>
</g>
<g>
</g>
<g>
</g>
<g>
</g>
</svg>
