<?xml version="1.0" encoding="utf-8"?>
<!-- Generator: Adobe Illustrator 16.0.0, SVG Export Plug-In . SVG Version: 6.00 Build 0)  -->
<!DOCTYPE svg PUBLIC "-//W3C//DTD SVG 1.1//EN" "http://www.w3.org/Graphics/SVG/1.1/DTD/svg11.dtd">
<svg version="1.1" id="Layer_1" xmlns="http://www.w3.org/2000/svg" xmlns:xlink="http://www.w3.org/1999/xlink" x="0px" y="0px"
	 width="410.066px" height="284.436px" viewBox="0 0 410.066 284.436" enable-background="new 0 0 410.066 284.436"
	 xml:space="preserve">
<path fill="#9BA1AA" d="M26.601,124.842c5.164,3.01,8.512,0.551,13.778,0.852c10.096,0.574,15.939,4.309,22.626,12.483
	c0,0-12.278,3.615-19.428,1.131C36.429,136.823,31.46,133.37,26.601,124.842 M45.756,143.327
	c5.711,7.893,10.995,10.768,18.344,12.439s19.143-3.269,19.143-3.269c-7.504-7.39-13.692-10.435-23.749-9.875
	C54.245,142.914,51.204,145.728,45.756,143.327 M23.104,106.617c-5.228-0.907-8.852,1.157-13.664-2.452
	c3.951,9.1,8.542,13.121,15.414,16.417c6.869,3.297,19.503,1.075,19.503,1.075C38.565,112.767,33.122,108.354,23.104,106.617
	 M89.17,173.292c7.221,6.449,12.979,8.112,20.498,8.162c7.517,0.047,17.97-7.31,17.97-7.31c-8.897-5.604-15.576-7.249-25.259-4.524
	C97.34,171.04,94.988,174.441,89.17,173.292 M27.971,103.095c-7.727-16.193-16.736-8.9-27.479-17.304
	c2.625,7.784,6.078,11.43,11.471,14.71C17.356,103.779,27.971,103.095,27.971,103.095 M86.203,169.851
	c7.469,0.858,18.648-5.33,18.648-5.33c-8.241-6.527-14.703-8.879-24.623-7.221c-5.171,0.864-7.879,3.991-13.544,2.213
	C73.181,166.714,78.731,168.991,86.203,169.851 M105.371,143.343c9.808,12.024,1.52,24.291,23.657,26.933
	c0,0-2.784-12.153-7.188-17.218C117.436,147.994,113.558,145.224,105.371,143.343 M85.433,149.021c0,0-0.109-12.465-3.334-18.363
	c-3.229-5.899-6.432-9.444-14.064-13.083C75.092,131.437,64.34,141.664,85.433,149.021 M101.376,142.939
	c-3.832-5.51-7.39-8.681-15.344-11.445c8.476,13.001-1.11,24.315,20.618,29.333C106.65,160.827,105.207,148.45,101.376,142.939
	 M51.561,101.679c5.576,14.586-6.229,23.639,14,33.277c0,0,1.226-12.417-1.36-18.653C61.611,110.068,58.793,106.175,51.561,101.679
	 M24.495,70.947c1.892,12.934-8.504,18.812,6.123,29.999c0,0,3.134-9.933,2.015-15.563C31.514,79.751,29.786,75.977,24.495,70.947
	 M36.804,83.895c4.026,15.208-8.687,22.954,10.443,34.839c0,0,2.542-12.24,0.621-18.762C45.947,93.451,43.546,89.24,36.804,83.895
	 M10.546,84.932c4.948,2.865,7.863,2.487,7.863,2.487s1.273-2.596,0.824-8.096c-0.785-9.602-5.475-11.795-12.148-17.218
	C4.934,60.359,0,55.2,0,55.2s1.205,5.855,1.398,10.022C1.804,73.974,1.911,79.931,10.546,84.932 M100.769,213.741
	c-14.631-8.888-18.148,1.723-31.133,0.438c6.094,5.002,10.808,6.17,16.886,5.982C92.596,219.977,100.769,213.741,100.769,213.741
	 M120.059,218.684c-15.476-7.254-17.746,3.68-30.748,3.869c6.547,4.283,11.334,4.924,17.327,4.068
	C112.629,225.77,120.059,218.684,120.059,218.684 M82.042,206.696c-13.638-10.44-18.396-0.313-31.21-3.104
	c5.573,5.693,10.171,7.395,16.27,7.897C73.202,211.991,82.042,206.696,82.042,206.696 M159.574,222.186
	c-16.661-3.778-16.475,7.373-29.101,10.394c7.264,2.766,12.061,2.362,17.717,0.241C153.845,230.702,159.574,222.186,159.574,222.186
	 M64.427,197.475c-10.044-9.992-15.016-2.549-25.577-5.102c4.202,5.086,7.837,6.832,12.824,7.746
	C56.659,201.032,64.427,197.475,64.427,197.475 M139.721,221.5c-16.152-5.547-17.188,5.565-30.069,7.192
	c6.938,3.537,11.756,3.654,17.605,2.156C133.108,229.351,139.721,221.5,139.721,221.5 M149.178,208.028
	c-4.761-2.534-8.464-3.5-15.146-2.563c10.383,6.563,8.529,17.926,25.478,13.42C159.51,218.883,153.933,210.563,149.178,208.028
	 M98.633,196.838c8.773,8.635,4.525,19.363,22.073,18.606c0,0-3.654-9.321-7.77-12.823
	C108.824,199.122,105.404,197.377,98.633,196.838 M116.128,202.12c9.612,7.637,6.561,18.75,23.884,16.094
	c0,0-4.635-8.873-9.089-11.908C126.467,203.272,122.886,201.915,116.128,202.12 M81.715,189.643
	c7.848,9.551,2.467,19.787,20.051,20.949c0,0-2.642-9.67-6.371-13.605C91.664,193.049,88.435,190.944,81.715,189.643 M52.6,174.353
	c4.409,9.247-0.571,16.95,13.195,20.751c0,0-0.498-8.352-2.953-12.256C60.388,178.946,58.008,176.61,52.6,174.353 M65.547,180.536
	c6.848,10.403,0.389,20.008,17.827,23.139c0,0-1.603-9.912-4.914-14.254C75.149,185.081,72.138,182.612,65.547,180.536
	 M51.049,182.149c-3.34-6.979-7.486-7.278-14.05-9.435c-2.114-0.694-7.297-3.147-7.297-3.147s2.584,4.05,3.924,7.119
	c2.814,6.449,4.605,10.885,12.52,12.16c4.533,0.729,6.61-0.389,6.61-0.389S52.965,186.143,51.049,182.149 M167.386,220.264
	c-8.833,3.197-8.229,12.158-15.813,13.93c7.523,1.97,12.256,1.05,17.659-1.67c3.926-1.977,8.078-8.194,9.919-11.465
	c21.191-3.904,40.262-10.375,58.655-19.951c1.039-0.162,2.08-0.33,3.127-0.506c4.862-0.842,9.791-1.901,14.766-3.088
	c4.977-1.188,9.991-2.537,15.033-3.977c2.521-0.718,5.049-1.451,7.572-2.234c2.545-0.775,5.094-1.615,7.6-2.41
	c10.055-3.248,20.313-6.137,30.702-8.295c10.366-2.168,20.896-3.549,31.164-3.342c10.223,0.139,20.297,1.918,28.672,6.385
	c4.187,2.201,7.91,5.037,11.041,8.346c1.546,1.673,2.954,3.447,4.222,5.3c1.226,1.881,2.37,3.797,3.315,5.797
	c0.505,0.981,0.906,2.012,1.357,3.006c0.388,1.018,0.836,2.041,1.168,3.035c0.623,1.871,0.996,3.93,1.144,5.938
	c0.295,4.045-0.254,8.063-1.364,11.728c-1.116,3.672-2.776,7.018-4.808,9.893c-2.034,2.875-4.435,5.273-6.974,7.162
	c-5.097,3.799-10.556,5.658-15.112,6.506c-4.579,0.877-8.306,0.91-10.82,0.867c-1.262-0.031-2.23-0.07-2.883-0.121
	c-0.653-0.043-0.989-0.063-0.989-0.063s0.332,0.055,0.978,0.161c0.646,0.109,1.607,0.255,2.871,0.396
	c2.519,0.248,6.271,0.588,11.041,0.041c2.381-0.271,5.01-0.771,7.793-1.658c2.776-0.893,5.711-2.186,8.563-4.065
	c5.709-3.697,11.108-9.851,13.961-17.916c1.425-4.015,2.27-8.457,2.16-13.138c-0.064-2.35-0.354-4.711-1.037-7.153
	c-0.329-1.16-0.728-2.246-1.097-3.388c-0.444-1.106-0.842-2.242-1.351-3.348c-0.95-2.234-2.13-4.414-3.418-6.572
	c-1.334-2.135-2.841-4.205-4.524-6.178c-3.416-3.891-7.541-7.4-12.271-9.992c-4.7-2.643-9.86-4.553-15.178-5.791
	c-5.32-1.26-10.796-1.912-16.287-2.083c-10.999-0.306-22.02,1.071-32.781,3.229c-10.762,2.188-21.263,5.342-31.407,8.678
	c-9.694,3.188-19.271,6.27-28.615,8.789c0.24-0.152,0.48-0.299,0.722-0.455c-0.291,0.17-0.583,0.328-0.875,0.498
	c-0.282,0.076-0.566,0.156-0.851,0.231c-4.834,1.287-9.621,2.398-14.325,3.384c-4.701,0.991-9.331,1.825-13.864,2.469
	c-4.53,0.647-8.96,1.115-13.258,1.457c-4.301,0.381-8.467,0.547-12.471,0.651c-4.008,0.074-7.852,0.039-11.508-0.088
	c-3.661-0.096-7.131-0.309-10.391-0.545c-6.521-0.522-12.194-1.219-16.858-1.885c-2.331-0.346-4.412-0.658-6.216-0.967
	c-1.808-0.295-3.35-0.549-4.591-0.795c-2.492-0.455-3.823-0.695-3.823-0.695s1.296,0.385,3.724,1.107
	c1.213,0.366,2.723,0.772,4.5,1.248c1.773,0.5,3.829,0.991,6.138,1.534c4.614,1.068,10.258,2.275,16.813,3.23
	c3.275,0.477,6.774,0.936,10.479,1.293c3.704,0.363,7.613,0.598,11.704,0.752c4.087,0.119,8.354,0.184,12.771,0.039
	c4.415-0.154,8.978-0.467,13.651-0.941c2.523-0.256,5.083-0.571,7.667-0.936c-17.659,7.818-35.854,12.9-55.84,15.565
	c-2.513-2.76-7.289-7.985-10.904-9.434c-5.015-2.004-8.811-2.563-15.354-0.91C158.663,208.954,158.093,218.258,167.386,220.264
	 M117.526,109.834c-6.717-15.752-15.753-9.18-25.554-17.793c2.032,7.615,5.188,11.313,10.231,14.703
	C107.252,110.134,117.526,109.834,117.526,109.834 M130.315,125.092c-8.342-14.914-16.565-7.354-27.239-14.779
	c2.821,7.297,6.341,10.607,11.706,13.408C120.147,126.52,130.315,125.092,130.315,125.092 M106.416,93.194
	C101.422,76.76,91.654,82.215,82.87,72.477c1.209,7.874,3.954,11.935,8.615,15.898C96.149,92.339,106.416,93.194,106.416,93.194
	 M160.377,150.976c-11.34-12.783-17.684-3.609-29.703-8.521c4.29,6.482,8.428,8.953,14.257,10.525
	C150.758,154.553,160.377,150.976,160.377,150.976 M97.479,75.43C95.132,61.467,86.77,64.602,79.669,56.376
	c0.451,6.582,2.388,10.118,5.907,13.768C89.096,73.793,97.479,75.43,97.479,75.43 M116.026,127.16
	c3.574,6.919,7.418,9.82,13.047,12.015c5.626,2.193,15.569-0.328,15.569-0.328C134.758,124.919,127.437,133.35,116.026,127.16
	 M149.375,122.5c4.618,11.379-3.525,19.533,12.873,25.754c0,0,0.323-10.011-2.063-14.843
	C157.798,128.577,155.353,125.635,149.375,122.5 M125.641,94.858c2.105,12.123-7.622,18.368,7.087,27.98
	c0,0,2.464-9.705,1.165-14.946C132.592,102.651,130.825,99.244,125.641,94.858 M136.775,109.346
	c3.377,11.803-5.614,19.054,10.025,26.998c0,0,1.406-9.911-0.445-14.973C144.505,116.309,142.388,113.12,136.775,109.346
	 M116.09,79.146c0.813,12.332-9.534,17.517,4.079,28.708c0,0,3.49-9.394,2.752-14.766C122.186,87.716,120.788,84.118,116.09,79.146
	 M99.975,74.301c0,0,4.464-7.075,4.745-11.679c0.279-4.604-0.292-7.887-3.372-12.875C99.541,59.829,90.997,63.196,99.975,74.301
	 M108.263,62.319c-0.496,12.441-11.357,16.494,0.994,29.194c0,0,4.477-8.989,4.315-14.446
	C113.413,71.61,112.407,67.849,108.263,62.319 M93.256,61.3c0,0,1.519-1.758,2.292-6.122c1.351-7.618-1.842-10.278-5.919-15.854
	c-1.313-1.796-4.09-6.812-4.09-6.812s-0.265,4.795-0.965,8.07c-1.472,6.881-2.604,11.529,3.082,17.178
	C90.914,60.998,93.256,61.3,93.256,61.3 M385.678,170.286c5.568,3.271,9.977,7.381,13.265,11.547c1.636,2.09,3.043,4.166,4.183,6.19
	c1.154,2.013,2.136,3.927,2.906,5.709c1.553,3.563,2.531,6.498,3.141,8.509c0.584,2.028,0.896,3.108,0.896,3.108
	s-0.035-0.277-0.104-0.82c-0.075-0.541-0.151-1.346-0.334-2.391c-0.336-2.094-0.896-5.162-2.086-8.975
	c-1.16-3.813-3.02-8.373-6.1-13.125c-3.021-4.781-7.516-9.574-13.301-13.595c-5.771-4.054-12.888-7.098-20.605-9.138
	c-3.863-1.034-7.899-1.767-12.035-2.296c-4.138-0.544-8.38-0.836-12.685-0.971l-1.618-0.166l-0.855-0.155h-0.795h-1.598
	l-1.674,0.174c-2.25,0.067-4.443,0.311-6.68,0.511c-4.449,0.442-8.929,1.119-13.361,2.054c-8.887,1.823-17.632,4.5-26.207,7.358
	c-8.584,2.842-17.014,5.899-25.367,8.597c-8.145,2.655-16.211,4.991-24.123,6.834c-21.748-3.716-41.801-10.606-61.928-21.328
	c-0.435-3.703-1.269-10.735-3.362-14.021c-2.902-4.553-5.659-7.218-11.938-9.691c4.044,5.486-1.852,12.714,4.53,19.761
	c-9.041-2.553-13.769,5.082-20.965,2.1c4.966,5.985,9.351,7.998,15.325,8.94c4.342,0.683,11.337-1.95,14.739-3.535
	c20.171,9.505,40.104,15.433,61.438,18.271c-7.543,1.684-14.929,2.922-22.015,3.646c-2.063,0.207-4.096,0.383-6.103,0.537
	c-19.45-0.029-38.743-2.396-58.47-7.193c-1.695-4.324-4.931-12.524-8.494-15.815c-4.938-4.563-9.101-6.901-17.445-7.89
	c6.473,6.75,3.455,16.443,11.722,22.357c-9.813,0.188-14.943,9.52-24.585,9.166c7.879,5.635,13.79,6.674,21.286,5.912
	c5.438-0.553,13.035-5.935,16.631-8.922c4.663,0.895,9.296,1.647,13.903,2.287c3.331,0.776,7.175,1.625,11.515,2.346
	c5.438,0.904,11.621,1.789,18.426,2.227c6.796,0.429,14.213,0.625,22.035,0.121c7.82-0.475,16.057-1.461,24.452-3.098
	c8.396-1.631,16.944-3.877,25.478-6.476c8.535-2.61,17.068-5.524,25.558-8.323c8.496-2.761,16.971-5.381,25.423-7.159
	c4.224-0.903,8.433-1.604,12.608-2.063c2.079-0.216,4.186-0.396,6.213-0.481l1.526-0.075l1.597-0.042l0.795-0.021l0.733-0.004
	l1.55-0.006c8.243-0.061,16.161,0.73,23.474,2.215C373.51,164.464,380.107,167.036,385.678,170.286"/>
<rect x="0" y="0" fill="none" width="410.066" height="284.436"/>
</svg>
