<?xml version="1.0" encoding="utf-8"?>
<!-- Generator: Adobe Illustrator 16.0.0, SVG Export Plug-In . SVG Version: 6.00 Build 0)  -->
<!DOCTYPE svg PUBLIC "-//W3C//DTD SVG 1.1//EN" "http://www.w3.org/Graphics/SVG/1.1/DTD/svg11.dtd">
<svg version="1.1" id="Layer_1" xmlns="http://www.w3.org/2000/svg" xmlns:xlink="http://www.w3.org/1999/xlink" x="0px" y="0px"
	 width="93px" height="30px" viewBox="0 0 93 30" enable-background="new 0 0 93 30" xml:space="preserve">
<g>
	<path fill="#8D8F9A" d="M89.436,12.7c-0.615,1.08-1.244,1.517-2.15,1.832c-0.904,0.314-2.463-0.143-2.463-0.143
		c0.85-1.037,1.588-1.51,2.869-1.582C88.357,12.771,88.783,13.081,89.436,12.7 M87.01,15.042c-0.691,0.305-1.074-0.053-1.742-0.09
		c-1.273-0.07-2.057,0.316-3.008,1.252c0,0,1.496,0.626,2.426,0.414C85.615,16.407,86.285,16.042,87.01,15.042 M89.881,10.39
		c-1.27,0.221-1.961,0.78-2.693,1.906c0,0,1.6,0.281,2.471-0.137s1.453-0.927,1.953-2.079C91.002,10.536,90.543,10.275,89.881,10.39
		 M81.51,18.839c-0.738,0.145-1.035-0.285-1.674-0.466c-1.229-0.346-2.074-0.136-3.203,0.574c0,0,1.326,0.932,2.277,0.925
		C79.863,19.866,80.594,19.656,81.51,18.839 M89.264,9.944c0,0,1.344,0.086,2.027-0.329c0.684-0.416,1.123-0.877,1.453-1.864
		C91.383,8.816,90.242,7.892,89.264,9.944 M81.887,18.403c0.945-0.109,1.648-0.398,2.473-1.311c-0.719,0.225-1.064-0.172-1.717-0.28
		c-1.26-0.21-2.078,0.088-3.121,0.914C79.521,17.727,80.939,18.512,81.887,18.403 M79.455,15.044
		c-1.037,0.238-1.527,0.589-2.086,1.231c-0.559,0.642-0.91,2.181-0.91,2.181C79.264,18.121,78.213,16.567,79.455,15.044
		 M81.982,15.765c2.672-0.934,1.309-2.229,2.203-3.986c-0.965,0.461-1.373,0.911-1.781,1.658
		C81.996,14.185,81.982,15.765,81.982,15.765 M79.961,14.992c-0.484,0.698-0.666,2.267-0.666,2.267
		c2.752-0.636,1.537-2.068,2.611-3.716C80.898,13.894,80.447,14.296,79.961,14.992 M86.273,9.764
		c-0.916,0.571-1.273,1.064-1.6,1.854c-0.33,0.789-0.174,2.362-0.174,2.362C87.064,12.759,85.568,11.612,86.273,9.764 M89.703,5.871
		c-0.67,0.637-0.887,1.116-1.029,1.829c-0.143,0.715,0.256,1.973,0.256,1.973C90.783,8.254,89.465,7.51,89.703,5.871 M88.145,7.511
		c-0.855,0.678-1.158,1.21-1.402,2.036c-0.244,0.828,0.078,2.377,0.078,2.377C89.244,10.419,87.635,9.438,88.145,7.511
		 M91.471,7.643c1.094-0.633,1.107-1.388,1.16-2.497c0.023-0.528,0.178-1.27,0.178-1.27s-0.625,0.653-0.9,0.875
		c-0.844,0.688-1.439,0.965-1.537,2.182c-0.059,0.696,0.104,1.026,0.104,1.026S90.844,8.005,91.471,7.643 M80.039,23.965
		c0,0,1.035,0.79,1.807,0.815c0.768,0.022,1.365-0.123,2.139-0.759C82.338,24.184,81.893,22.842,80.039,23.965 M77.594,24.592
		c0,0,0.943,0.896,1.703,1.007c0.76,0.108,1.365,0.025,2.193-0.517C79.844,25.06,79.557,23.673,77.594,24.592 M82.414,23.073
		c0,0,1.119,0.673,1.891,0.608c0.773-0.064,1.355-0.279,2.061-1.001C84.742,23.033,84.139,21.749,82.414,23.073 M72.59,25.038
		c0,0,0.723,1.075,1.441,1.347c0.717,0.267,1.324,0.318,2.242-0.031C74.676,25.97,74.701,24.557,72.59,25.038 M84.643,21.903
		c0,0,0.984,0.452,1.617,0.336c0.631-0.114,1.094-0.336,1.625-0.981C86.547,21.583,85.916,20.641,84.643,21.903 M75.104,24.951
		c0,0,0.84,0.991,1.58,1.182c0.74,0.191,1.352,0.175,2.229-0.271C77.281,25.655,77.148,24.246,75.104,24.951 M73.904,23.244
		c-0.6,0.318-1.309,1.375-1.309,1.375c2.146,0.569,1.912-0.871,3.229-1.702C74.977,22.798,74.508,22.921,73.904,23.244
		 M80.309,21.826c-0.855,0.065-1.289,0.288-1.813,0.729c-0.52,0.446-0.984,1.628-0.984,1.628
		C79.736,24.277,79.199,22.919,80.309,21.826 M78.094,22.493c-0.857-0.026-1.311,0.146-1.873,0.529
		c-0.566,0.386-1.154,1.512-1.154,1.512C77.264,24.869,76.875,23.461,78.094,22.493 M82.453,20.911
		c-0.852,0.167-1.262,0.434-1.732,0.932c-0.473,0.498-0.809,1.724-0.809,1.724C82.141,23.421,81.459,22.122,82.453,20.911
		 M86.143,18.974c-0.686,0.285-0.986,0.582-1.299,1.075c-0.311,0.496-0.373,1.555-0.373,1.555
		C86.215,21.122,85.586,20.146,86.143,18.974 M84.5,19.757c-0.832,0.264-1.215,0.577-1.635,1.128
		c-0.418,0.55-0.621,1.805-0.621,1.805C84.453,22.293,83.635,21.078,84.5,19.757 M86.34,19.961
		c-0.244,0.507-0.219,0.803-0.219,0.803s0.266,0.142,0.838,0.046c1.004-0.16,1.232-0.723,1.586-1.54
		c0.17-0.39,0.498-0.904,0.498-0.904s-0.656,0.313-0.924,0.399C87.289,19.038,86.762,19.076,86.34,19.961 M71.598,24.79
		c1.178-0.252,1.105-1.432,1.928-1.696c-0.83-0.211-1.311-0.14-1.945,0.114c-0.459,0.184-1.064,0.847-1.381,1.194
		c-2.533-0.335-4.838-0.979-7.078-1.972c0.33,0.048,0.654,0.086,0.975,0.119c0.59,0.063,1.168,0.1,1.729,0.119
		c0.559,0.019,1.102,0.012,1.617-0.005c0.518-0.019,1.016-0.048,1.484-0.096c0.469-0.044,0.914-0.104,1.326-0.162
		c0.832-0.121,1.547-0.275,2.131-0.411c0.293-0.068,0.555-0.129,0.779-0.193c0.225-0.061,0.416-0.11,0.57-0.158
		c0.307-0.092,0.471-0.14,0.471-0.14s-0.168,0.028-0.486,0.087c-0.156,0.031-0.352,0.064-0.582,0.101
		c-0.227,0.039-0.49,0.079-0.785,0.123c-0.592,0.085-1.311,0.173-2.137,0.239c-0.412,0.029-0.852,0.057-1.316,0.068
		c-0.463,0.015-0.951,0.021-1.457,0.011c-0.51-0.015-1.037-0.035-1.582-0.083c-0.545-0.042-1.105-0.101-1.68-0.184
		c-0.574-0.081-1.16-0.188-1.756-0.313s-1.203-0.265-1.816-0.43c-0.035-0.008-0.07-0.021-0.105-0.029
		c-0.039-0.022-0.076-0.041-0.111-0.063c0.031,0.019,0.061,0.038,0.09,0.057c-1.184-0.319-2.395-0.711-3.627-1.115
		c-1.285-0.423-2.615-0.822-3.979-1.1c-1.363-0.272-2.76-0.448-4.153-0.408c-0.695,0.021-1.39,0.104-2.063,0.264
		c-0.673,0.156-1.328,0.399-1.922,0.733c-0.601,0.328-1.123,0.773-1.556,1.27c-0.212,0.248-0.404,0.511-0.573,0.781
		c-0.163,0.273-0.313,0.551-0.434,0.832c-0.063,0.14-0.113,0.285-0.169,0.427c-0.047,0.142-0.098,0.281-0.139,0.428
		c-0.088,0.311-0.125,0.608-0.132,0.906c-0.014,0.592,0.093,1.155,0.274,1.665c0.36,1.021,1.045,1.801,1.77,2.271
		c0.36,0.237,0.732,0.402,1.085,0.515c0.352,0.114,0.685,0.175,0.987,0.21c0.604,0.069,1.08,0.027,1.399-0.004
		c0.161-0.019,0.282-0.037,0.364-0.052c0.08-0.013,0.123-0.019,0.123-0.019s-0.043,0.002-0.125,0.006
		c-0.083,0.008-0.206,0.013-0.365,0.017c-0.318,0.006-0.792,0-1.372-0.11c-0.577-0.106-1.268-0.344-1.915-0.823
		c-0.322-0.24-0.626-0.544-0.885-0.909c-0.256-0.364-0.467-0.79-0.607-1.252c-0.142-0.465-0.211-0.974-0.174-1.486
		c0.019-0.254,0.065-0.517,0.145-0.753c0.042-0.127,0.099-0.256,0.148-0.383c0.058-0.13,0.108-0.259,0.172-0.382
		c0.12-0.254,0.265-0.498,0.42-0.735c0.16-0.235,0.339-0.461,0.535-0.671c0.397-0.419,0.869-0.78,1.4-1.06
		c1.06-0.566,2.336-0.792,3.632-0.811c1.301-0.024,2.637,0.15,3.949,0.426c1.316,0.273,2.615,0.64,3.889,1.052
		c0.318,0.103,0.641,0.209,0.963,0.305c0.32,0.1,0.643,0.191,0.961,0.285c0.637,0.182,1.273,0.353,1.902,0.503
		c0.633,0.149,1.256,0.285,1.873,0.392c0.133,0.021,0.266,0.042,0.395,0.064c2.332,1.213,4.748,2.032,7.436,2.526
		c0.23,0.415,0.756,1.202,1.254,1.454c0.686,0.343,1.285,0.461,2.238,0.211C72.641,26.333,72.717,25.199,71.598,24.79
		 M77.916,10.798c0,0,1.303,0.037,1.941-0.391c0.639-0.431,1.039-0.899,1.297-1.864C79.912,9.635,78.766,8.802,77.916,10.798
		 M76.295,12.731c0,0,1.287,0.18,1.967-0.174c0.682-0.354,1.127-0.774,1.484-1.699C78.395,11.8,77.354,10.841,76.295,12.731
		 M79.322,8.69c0,0,1.301-0.109,1.893-0.611c0.59-0.502,0.938-1.017,1.092-2.015C81.195,7.298,79.957,6.608,79.322,8.69
		 M72.486,16.011c0,0,1.221,0.453,1.957,0.254c0.74-0.199,1.264-0.513,1.807-1.334C74.727,15.554,73.924,14.392,72.486,16.011
		 M80.455,6.439c0,0,1.064-0.208,1.51-0.67c0.445-0.462,0.689-0.911,0.746-1.744C81.813,5.067,80.752,4.67,80.455,6.439
		 M78.105,12.993c-1.445,0.783-2.373-0.283-3.625,1.48c0,0,1.26,0.32,1.971,0.042C77.166,14.237,77.654,13.87,78.105,12.993
		 M73.881,12.403c-0.758,0.397-1.068,0.77-1.369,1.382c-0.305,0.612-0.264,1.88-0.264,1.88
		C74.326,14.878,73.295,13.845,73.881,12.403 M76.887,8.9c-0.656,0.556-0.881,0.987-1.047,1.651c-0.162,0.664,0.15,1.894,0.15,1.894
		C77.854,11.228,76.623,10.437,76.887,8.9 M75.477,10.735c-0.711,0.479-0.98,0.883-1.215,1.524s-0.057,1.897-0.057,1.897
		C76.189,13.149,75.047,12.231,75.477,10.735 M78.1,6.91c-0.598,0.629-0.775,1.085-0.867,1.767
		c-0.094,0.681,0.348,1.869,0.348,1.869C79.305,9.128,77.994,8.472,78.1,6.91 M80.139,6.295c1.139-1.407,0.057-1.834-0.172-3.111
		c-0.391,0.632-0.465,1.049-0.43,1.632C79.574,5.399,80.139,6.295,80.139,6.295 M79.092,4.777c-0.527,0.701-0.654,1.177-0.676,1.869
		c-0.02,0.691,0.547,1.831,0.547,1.831C80.529,6.867,79.152,6.354,79.092,4.777 M80.99,4.648c0,0,0.299-0.038,0.711-0.449
		c0.719-0.716,0.578-1.304,0.391-2.176C82.002,1.608,81.969,1,81.969,1s-0.352,0.637-0.52,0.864c-0.516,0.707-0.92,1.044-0.75,2.008
		C80.799,4.426,80.99,4.648,80.99,4.648 M43.939,18.457c0.705-0.41,1.541-0.737,2.468-0.924c0.929-0.188,1.931-0.289,2.976-0.28
		h0.197l0.092,0.001l0.102,0.003l0.201,0.004l0.193,0.011c0.256,0.011,0.523,0.033,0.785,0.061c0.531,0.059,1.064,0.147,1.598,0.262
		c1.072,0.226,2.148,0.558,3.223,0.907c1.076,0.354,2.158,0.724,3.238,1.055c1.082,0.328,2.164,0.614,3.229,0.82
		c1.064,0.21,2.107,0.336,3.1,0.394c0.992,0.064,1.928,0.038,2.791-0.015c0.863-0.056,1.646-0.166,2.334-0.285
		c0.549-0.09,1.037-0.196,1.459-0.295c0.584-0.081,1.172-0.179,1.764-0.292c0.455,0.382,1.418,1.063,2.105,1.133
		c0.949,0.098,1.699-0.035,2.697-0.749c-1.223,0.043-1.871-1.138-3.115-1.163c1.049-0.749,0.666-1.978,1.486-2.833
		c-1.059,0.125-1.586,0.421-2.211,1c-0.453,0.416-0.861,1.456-1.078,2.005c-2.498,0.606-4.943,0.909-7.406,0.911
		c-0.254-0.02-0.512-0.041-0.775-0.069c-0.896-0.089-1.832-0.248-2.787-0.461c2.703-0.36,5.229-1.11,7.785-2.315
		c0.43,0.2,1.314,0.534,1.865,0.448c0.758-0.12,1.313-0.374,1.941-1.133c-0.91,0.378-1.51-0.589-2.654-0.267
		c0.809-0.894,0.061-1.809,0.572-2.504c-0.795,0.313-1.145,0.652-1.512,1.229c-0.266,0.416-0.369,1.307-0.428,1.776
		c-2.549,1.358-5.09,2.231-7.846,2.703c-1.004-0.234-2.021-0.53-3.055-0.866c-1.061-0.341-2.127-0.729-3.217-1.089
		c-1.086-0.362-2.193-0.702-3.32-0.933c-0.561-0.119-1.129-0.205-1.691-0.26c-0.285-0.025-0.563-0.058-0.846-0.066l-0.213-0.021
		h-0.203h-0.1l-0.109,0.02l-0.205,0.021c-0.545,0.018-1.082,0.055-1.605,0.123c-0.525,0.067-1.037,0.16-1.526,0.291
		c-0.979,0.258-1.879,0.644-2.61,1.157c-0.734,0.509-1.303,1.117-1.685,1.724c-0.391,0.601-0.626,1.182-0.774,1.665
		c-0.15,0.483-0.221,0.871-0.264,1.136c-0.022,0.134-0.033,0.233-0.042,0.303c-0.008,0.068-0.013,0.104-0.013,0.104
		s0.04-0.138,0.114-0.393c0.076-0.256,0.201-0.627,0.397-1.079c0.098-0.226,0.223-0.469,0.369-0.722
		c0.145-0.26,0.322-0.522,0.53-0.787C42.674,19.394,43.233,18.871,43.939,18.457"/>
	<rect x="40.848" y="1" fill="none" width="51.96" height="36.043"/>
	<path fill="#8D8F9A" d="M3.563,12.7c0.653,0.381,1.077,0.07,1.746,0.107c1.279,0.072,2.019,0.545,2.867,1.582
		c0,0-1.557,0.457-2.462,0.143C4.809,14.217,4.179,13.78,3.563,12.7 M5.989,15.042c0.724,1,1.394,1.365,2.324,1.576
		c0.931,0.212,2.426-0.414,2.426-0.414c-0.951-0.936-1.735-1.322-3.009-1.252C7.065,14.989,6.681,15.347,5.989,15.042 M3.12,10.39
		c-0.663-0.114-1.122,0.146-1.731-0.31c0.501,1.152,1.082,1.661,1.953,2.079c0.871,0.418,2.471,0.137,2.471,0.137
		C5.078,11.17,4.388,10.61,3.12,10.39 M11.489,18.839c0.916,0.817,1.646,1.027,2.599,1.033c0.952,0.007,2.277-0.925,2.277-0.925
		c-1.128-0.71-1.974-0.92-3.201-0.574C12.525,18.554,12.228,18.983,11.489,18.839 M3.736,9.944C2.758,7.892,1.615,8.816,0.254,7.751
		C0.587,8.738,1.024,9.2,1.708,9.615C2.392,10.03,3.736,9.944,3.736,9.944 M11.115,18.403c0.945,0.108,2.363-0.677,2.363-0.677
		c-1.043-0.826-1.863-1.124-3.121-0.914c-0.654,0.108-0.998,0.505-1.716,0.28C9.465,18.005,10.168,18.294,11.115,18.403
		 M13.544,15.044c1.243,1.523,0.192,3.077,2.997,3.412c0,0-0.353-1.539-0.911-2.181C15.072,15.633,14.581,15.282,13.544,15.044
		 M11.016,15.765c0,0-0.013-1.58-0.421-2.328c-0.41-0.747-0.815-1.197-1.782-1.658C9.708,13.536,8.344,14.831,11.016,15.765
		 M13.038,14.992c-0.485-0.696-0.938-1.099-1.944-1.449c1.074,1.647-0.141,3.08,2.612,3.716
		C13.705,17.259,13.522,15.69,13.038,14.992 M6.726,9.764c0.707,1.848-0.79,2.995,1.773,4.216c0,0,0.155-1.573-0.172-2.362
		C7.999,10.828,7.642,10.335,6.726,9.764 M3.296,5.871c0.239,1.64-1.078,2.383,0.775,3.801c0,0,0.397-1.258,0.255-1.973
		C4.185,6.987,3.966,6.507,3.296,5.871 M4.856,7.511c0.508,1.926-1.101,2.908,1.323,4.414c0,0,0.322-1.55,0.078-2.377
		C6.014,8.722,5.71,8.189,4.856,7.511 M1.528,7.643c0.627,0.363,0.996,0.315,0.996,0.315s0.161-0.33,0.104-1.026
		C2.529,5.715,1.935,5.438,1.09,4.75C0.817,4.529,0.192,3.875,0.192,3.875s0.153,0.742,0.178,1.27
		C0.42,6.254,0.435,7.009,1.528,7.643 M12.959,23.965c-1.853-1.125-2.298,0.219-3.944,0.055c0.772,0.636,1.369,0.783,2.139,0.761
		C11.925,24.755,12.959,23.965,12.959,23.965 M15.404,24.59c-1.961-0.919-2.249,0.47-3.896,0.492
		c0.828,0.542,1.436,0.623,2.195,0.517C14.462,25.488,15.404,24.59,15.404,24.59 M10.587,23.073c-1.727-1.324-2.33-0.04-3.954-0.393
		c0.705,0.72,1.289,0.935,2.061,0.999C9.467,23.742,10.587,23.073,10.587,23.073 M20.412,25.034
		c-2.111-0.478-2.088,0.936-3.687,1.317c0.919,0.35,1.526,0.3,2.244,0.031C19.686,26.113,20.412,25.034,20.412,25.034 M8.356,21.903
		c-1.273-1.265-1.903-0.32-3.243-0.646c0.533,0.644,0.994,0.867,1.625,0.981C7.372,22.354,8.356,21.903,8.356,21.903 M17.896,24.946
		c-2.047-0.702-2.18,0.707-3.811,0.913c0.878,0.448,1.488,0.463,2.23,0.273C17.057,25.94,17.896,24.946,17.896,24.946
		 M19.094,23.241c-0.604-0.322-1.072-0.443-1.919-0.324c1.316,0.831,1.082,2.27,3.228,1.698
		C20.403,24.615,19.695,23.563,19.094,23.241 M12.689,21.822c1.111,1.095,0.573,2.455,2.797,2.357c0,0-0.464-1.18-0.984-1.624
		C13.98,22.112,13.546,21.892,12.689,21.822 M14.906,22.493c1.218,0.965,0.831,2.376,3.026,2.039c0,0-0.587-1.126-1.151-1.51
		C16.216,22.64,15.762,22.467,14.906,22.493 M10.545,20.911c0.994,1.211,0.313,2.508,2.542,2.653c0,0-0.336-1.224-0.81-1.722
		C11.807,21.343,11.397,21.076,10.545,20.911 M6.857,18.974c0.558,1.171-0.073,2.148,1.672,2.63c0,0-0.063-1.059-0.374-1.555
		C7.844,19.556,7.542,19.259,6.857,18.974 M8.498,19.757c0.867,1.319,0.048,2.534,2.258,2.933c0,0-0.202-1.257-0.622-1.805
		C9.715,20.332,9.332,20.02,8.498,19.757 M6.66,19.961c-0.422-0.885-0.949-0.923-1.781-1.196c-0.268-0.087-0.923-0.399-0.923-0.399
		s0.327,0.515,0.497,0.904c0.356,0.815,0.583,1.38,1.586,1.54c0.574,0.094,0.838-0.048,0.838-0.048S6.903,20.468,6.66,19.961
		 M21.402,24.79c-1.12,0.406-1.044,1.543-2.005,1.768c0.954,0.248,1.554,0.132,2.239-0.215c0.497-0.248,1.022-1.035,1.256-1.45
		c2.685-0.494,5.103-1.315,7.434-2.526c0.13-0.022,0.262-0.044,0.396-0.064c0.617-0.108,1.24-0.242,1.872-0.394
		c0.629-0.15,1.266-0.321,1.903-0.505c0.319-0.09,0.641-0.184,0.961-0.281c0.322-0.098,0.643-0.204,0.963-0.305
		c1.273-0.412,2.573-0.779,3.888-1.052c1.314-0.275,2.649-0.45,3.95-0.426c1.295,0.019,2.571,0.244,3.632,0.811
		c0.531,0.279,1.002,0.638,1.4,1.057c0.195,0.213,0.373,0.438,0.535,0.674c0.154,0.237,0.299,0.479,0.418,0.733
		c0.064,0.125,0.115,0.254,0.174,0.382c0.049,0.129,0.105,0.256,0.148,0.385c0.078,0.236,0.125,0.496,0.145,0.751
		c0.037,0.513-0.033,1.021-0.172,1.486c-0.145,0.464-0.354,0.89-0.611,1.254c-0.258,0.365-0.563,0.667-0.884,0.907
		c-0.646,0.481-1.337,0.717-1.915,0.825c-0.579,0.11-1.053,0.116-1.37,0.108c-0.161-0.004-0.284-0.009-0.367-0.015
		c-0.082-0.006-0.125-0.009-0.125-0.009s0.043,0.007,0.125,0.021c0.081,0.015,0.203,0.033,0.363,0.05
		c0.319,0.031,0.795,0.073,1.398,0.004c0.304-0.033,0.637-0.096,0.989-0.208c0.35-0.112,0.723-0.279,1.084-0.515
		c0.725-0.47,1.408-1.251,1.77-2.271c0.182-0.51,0.287-1.073,0.273-1.667c-0.008-0.296-0.045-0.596-0.131-0.906
		c-0.041-0.146-0.092-0.284-0.141-0.428c-0.055-0.14-0.105-0.285-0.17-0.425c-0.119-0.283-0.27-0.561-0.434-0.832
		c-0.17-0.271-0.359-0.533-0.57-0.783c-0.434-0.494-0.957-0.939-1.559-1.268c-0.594-0.334-1.248-0.577-1.922-0.733
		c-0.674-0.159-1.368-0.243-2.063-0.264c-1.394-0.04-2.791,0.136-4.154,0.408c-1.364,0.277-2.693,0.677-3.979,1.1
		c-1.231,0.404-2.443,0.796-3.626,1.115c0.029-0.021,0.06-0.038,0.09-0.059c-0.035,0.021-0.073,0.042-0.111,0.064
		c-0.036,0.009-0.071,0.019-0.106,0.027c-0.613,0.165-1.219,0.307-1.815,0.432c-0.596,0.125-1.183,0.229-1.756,0.313
		c-0.575,0.081-1.136,0.14-1.68,0.184c-0.545,0.048-1.074,0.068-1.581,0.083c-0.508,0.011-0.995,0.004-1.459-0.011
		c-0.464-0.012-0.903-0.041-1.316-0.068c-0.826-0.066-1.545-0.156-2.136-0.239c-0.295-0.046-0.56-0.084-0.787-0.123
		c-0.23-0.038-0.425-0.069-0.582-0.103c-0.316-0.057-0.486-0.088-0.486-0.088s0.165,0.051,0.473,0.143
		c0.154,0.045,0.345,0.098,0.57,0.156c0.224,0.064,0.485,0.125,0.778,0.193c0.584,0.138,1.299,0.29,2.13,0.413
		c0.416,0.058,0.859,0.118,1.328,0.162c0.47,0.046,0.966,0.077,1.484,0.096c0.517,0.013,1.059,0.023,1.618,0.005
		c0.561-0.02,1.138-0.061,1.73-0.119c0.319-0.033,0.644-0.073,0.973-0.119c-2.239,0.99-4.546,1.635-7.078,1.972
		c-0.317-0.35-0.923-1.013-1.381-1.194c-0.636-0.254-1.116-0.325-1.945-0.116C20.296,23.358,20.223,24.538,21.402,24.79
		 M15.083,10.798c-0.85-1.996-1.995-1.163-3.237-2.255c0.257,0.965,0.657,1.433,1.296,1.864
		C13.78,10.835,15.083,10.798,15.083,10.798 M16.704,12.731c-1.057-1.891-2.1-0.932-3.451-1.873
		c0.357,0.925,0.803,1.345,1.484,1.699C15.416,12.911,16.704,12.731,16.704,12.731 M13.677,8.69
		c-0.634-2.082-1.872-1.392-2.984-2.625c0.153,0.998,0.501,1.513,1.091,2.015C12.375,8.581,13.677,8.69,13.677,8.69 M20.513,16.011
		c-1.437-1.619-2.24-0.457-3.763-1.08c0.543,0.821,1.067,1.135,1.805,1.334C19.294,16.464,20.513,16.011,20.513,16.011
		 M12.543,6.439c-0.296-1.769-1.356-1.372-2.256-2.414c0.057,0.833,0.302,1.282,0.748,1.744C11.481,6.23,12.543,6.439,12.543,6.439
		 M14.893,12.993c0.453,0.877,0.94,1.244,1.654,1.522c0.713,0.278,1.972-0.042,1.972-0.042
		C17.267,12.71,16.339,13.776,14.893,12.993 M19.119,12.403c0.586,1.441-0.446,2.475,1.632,3.262c0,0,0.041-1.268-0.263-1.88
		C20.187,13.173,19.875,12.801,19.119,12.403 M16.112,8.9c0.266,1.536-0.966,2.327,0.896,3.545c0,0,0.313-1.229,0.149-1.894
		C16.992,9.887,16.769,9.457,16.112,8.9 M17.522,10.735c0.429,1.496-0.712,2.414,1.271,3.422c0,0,0.178-1.256-0.057-1.897
		S18.234,11.215,17.522,10.735 M14.9,6.91c0.104,1.562-1.208,2.219,0.518,3.636c0,0,0.442-1.188,0.348-1.869
		C15.674,7.995,15.497,7.539,14.9,6.91 M12.86,6.295c0,0,0.566-0.896,0.601-1.479c0.036-0.583-0.038-1-0.428-1.632
		C12.805,4.461,11.722,4.889,12.86,6.295 M13.909,4.777c-0.062,1.577-1.438,2.09,0.127,3.699c0,0,0.567-1.14,0.547-1.831
		C14.562,5.955,14.435,5.478,13.909,4.777 M12.008,4.648c0,0,0.192-0.223,0.292-0.776c0.17-0.964-0.235-1.302-0.75-2.008
		C11.382,1.637,11.03,1,11.03,1s-0.033,0.608-0.123,1.024c-0.186,0.872-0.329,1.46,0.391,2.176
		C11.711,4.61,12.008,4.648,12.008,4.648 M49.061,18.457c0.705,0.414,1.264,0.937,1.682,1.465c0.207,0.264,0.385,0.527,0.529,0.783
		c0.146,0.257,0.27,0.498,0.369,0.726c0.195,0.45,0.318,0.823,0.396,1.077c0.074,0.257,0.113,0.395,0.113,0.395
		s-0.004-0.036-0.012-0.104c-0.01-0.069-0.02-0.169-0.043-0.303c-0.043-0.265-0.113-0.656-0.264-1.138
		c-0.146-0.483-0.383-1.063-0.773-1.663c-0.381-0.606-0.951-1.215-1.686-1.724c-0.731-0.514-1.633-0.899-2.61-1.157
		c-0.49-0.131-1.001-0.224-1.525-0.291c-0.525-0.068-1.062-0.105-1.607-0.123l-0.205-0.021l-0.109-0.02h-0.099h-0.203L42.8,16.38
		c-0.283,0.009-0.561,0.041-0.845,0.066c-0.563,0.055-1.131,0.141-1.692,0.26c-1.126,0.23-2.234,0.57-3.321,0.933
		c-1.088,0.359-2.156,0.748-3.216,1.089c-1.032,0.336-2.052,0.632-3.056,0.866c-2.755-0.472-5.298-1.345-7.847-2.703
		c-0.055-0.47-0.16-1.36-0.426-1.776c-0.369-0.576-0.717-0.915-1.512-1.229c0.511,0.695-0.236,1.61,0.573,2.504
		c-1.146-0.322-1.744,0.645-2.656,0.267c0.629,0.759,1.185,1.013,1.941,1.133c0.551,0.086,1.437-0.248,1.868-0.448
		c2.556,1.205,5.083,1.955,7.785,2.315c-0.956,0.213-1.891,0.37-2.788,0.461c-0.263,0.027-0.521,0.049-0.774,0.069
		c-2.465-0.004-4.91-0.305-7.409-0.911c-0.216-0.549-0.625-1.589-1.077-2.005c-0.625-0.579-1.153-0.875-2.21-1
		c0.82,0.855,0.438,2.084,1.486,2.833c-1.244,0.025-1.894,1.206-3.115,1.162c0.998,0.715,1.747,0.846,2.696,0.75
		c0.688-0.07,1.652-0.752,2.107-1.133c0.59,0.113,1.178,0.21,1.762,0.292c0.421,0.098,0.909,0.205,1.458,0.295
		c0.689,0.116,1.473,0.229,2.336,0.283c0.861,0.055,1.8,0.081,2.792,0.017c0.992-0.061,2.035-0.188,3.098-0.394
		c1.065-0.206,2.147-0.492,3.229-0.82c1.082-0.331,2.164-0.701,3.24-1.055c1.075-0.35,2.149-0.682,3.221-0.907
		c0.535-0.114,1.068-0.203,1.598-0.262c0.263-0.027,0.53-0.05,0.786-0.061l0.194-0.011l0.201-0.004l0.103-0.003l0.091-0.001h0.197
		c1.046-0.009,2.046,0.092,2.975,0.28C47.52,17.72,48.355,18.047,49.061,18.457"/>
	<rect x="0.192" y="1" fill="none" width="51.958" height="36.041"/>
</g>
</svg>
